PathFileType	4	(X/Y/Z)	SUBJ51_1_walk_RCNL2025.trc
DataRate	CameraRate	NumFrames	NumMarkers	Units	OrigDataRate	OrigDataStartFrame	OrigNumFrames
100	100	13	25	mm	100	181	241
Frame#	Time	R_Shoulder			L_Shoulder			C7			J_Notch			R_Elbow			L_Elbow			R_Wrist			L_Wrist			R_Asis			L_Asis			Sacral			Thoracic			Sternum			R_Thigh_Lateral			R_Knee_Lateral			R_Shank_Lateral			R_Ankle_Lateral			R_Heel			R_Toe			L_Thigh_Lateral			L_Knee_Lateral			L_Shank_Lateral			L_Ankle_Lateral			L_Heel			L_Toe		
		X1	Y1	Z1	X2	Y2	Z2	X3	Y3	Z3	X4	Y4	Z4	X5	Y5	Z5	X6	Y6	Z6	X7	Y7	Z7	X8	Y8	Z8	X9	Y9	Z9	X10	Y10	Z10	X11	Y11	Z11	X12	Y12	Z12	X13	Y13	Z13	X14	Y14	Z14	X15	Y15	Z15	X16	Y16	Z16	X17	Y17	Z17	X18	Y18	Z18	X19	Y19	Z19	X20	Y20	Z20	X21	Y21	Z21	X22	Y22	Z22	X23	Y23	Z23	X24	Y24	Z24	X25	Y25	Z25
181	1.80000000	1131.706055	1421.732666	19.799740	1181.163208	1453.528931	-433.584656	1069.500000	1550.845459	-226.306381	1217.259033	1437.346558	-212.761536	954.455078	1147.927734	58.890244	1223.425049	1168.043945	-569.037659	926.570923	875.590454	39.452053	1440.898438	1033.204376	-528.263687	1216.869629	997.261841	-98.155479	1197.679932	976.376099	-339.123505	989.703064	1021.259827	-207.091141	972.603394	1343.620117	-232.145264	1259.376221	1205.181152	-221.536652	1283.835815	625.550720	-11.959306	1314.592773	508.618774	-63.995949	1357.086304	292.550537	-5.105387	1428.796265	69.341545	-121.624863	1387.527222	55.067436	-186.780670	1589.749146	77.930786	-137.397705	1029.834839	601.850464	-429.262543	973.046814	494.022369	-379.388092	859.632996	338.142242	-419.871155	697.070557	124.239502	-315.144623	650.258606	157.268616	-266.390991	823.125000	41.850647	-279.351593
182	1.81000000	1147.354126	1421.759766	21.268785	1196.792603	1454.714233	-432.006897	1084.939087	1551.868042	-224.217239	1232.889771	1438.640259	-210.956802	972.270630	1146.902954	60.596012	1236.085083	1168.303711	-567.324463	946.223602	874.384766	41.730222	1452.173584	1031.057953	-527.471802	1233.439941	999.703247	-97.723145	1214.362061	976.618469	-338.108307	1006.087952	1022.141907	-207.249741	988.492432	1344.285156	-231.018692	1275.878540	1206.537964	-220.025299	1301.461426	628.511780	-11.691531	1331.371460	510.974945	-63.095398	1371.032349	294.390198	-3.654396	1432.846680	68.590347	-120.706535	1390.293823	56.603352	-185.808411	1594.157227	69.599220	-137.876190	1047.650513	601.130615	-429.407166	991.921265	493.525055	-379.603638	873.847839	341.438110	-420.495239	705.085205	132.371643	-316.511810	660.451294	167.546921	-267.352753	824.842834	41.679989	-279.478546
183	1.82000000	1163.159546	1422.218018	22.623976	1212.449585	1456.422852	-430.467438	1100.370239	1553.366455	-222.180420	1248.456055	1440.377686	-209.239044	990.629822	1146.187988	62.429214	1248.367188	1168.832397	-565.377441	966.787292	873.490509	44.213228	1462.599609	1028.445770	-526.670105	1249.691284	1002.704285	-97.281128	1231.046753	977.322388	-336.906006	1022.364624	1023.400085	-207.549423	1004.320862	1345.335938	-230.022522	1292.270386	1208.382935	-218.608170	1318.824585	631.759460	-11.230137	1347.670654	513.512512	-62.145557	1384.604858	296.399353	-2.077563	1436.075562	68.231766	-119.653778	1392.487305	58.172695	-184.662033	1597.476440	62.485535	-137.675629	1066.513550	600.577332	-429.725800	1012.244019	493.183228	-380.013550	889.308960	345.386993	-421.106750	714.864624	141.154602	-317.692169	673.027039	178.478683	-267.782959	826.896118	41.560535	-279.513580
184	1.83000000	1179.086548	1423.091919	23.858046	1228.089844	1458.609375	-428.968506	1115.736206	1555.222778	-220.236359	1263.934082	1442.463989	-207.637695	1009.469910	1145.779175	64.380219	1260.299316	1169.624023	-563.223755	988.253967	872.917847	46.890095	1472.176208	1025.391815	-525.847366	1265.581177	1006.117554	-96.775787	1247.673218	978.425049	-335.511749	1038.490112	1024.920410	-207.910812	1020.043335	1346.699097	-229.164352	1308.480225	1210.609741	-217.343231	1335.767700	635.078552	-10.670096	1363.223633	515.967957	-61.251839	1397.418457	298.296417	-0.623524	1438.663574	68.164017	-118.708107	1394.233765	59.634979	-183.546082	1599.923462	56.728794	-137.156403	1086.475708	600.172241	-430.272369	1034.015625	492.963409	-380.688568	906.098328	349.972839	-421.732513	726.596191	150.462341	-318.678894	688.193359	189.908157	-267.716736	829.404114	41.632675	-279.447540
185	1.84000000	1195.094360	1424.344604	24.970537	1243.647461	1461.188843	-427.516113	1130.982666	1557.305542	-218.416107	1279.304810	1444.792969	-206.179977	1028.698853	1145.650513	66.440613	1271.908691	1170.642090	-560.904541	1010.609833	872.658936	49.747426	1480.921326	1021.921234	-524.994278	1281.110474	1009.792480	-96.148987	1264.188721	979.847900	-333.933899	1054.433838	1026.598267	-208.237549	1035.620483	1348.298828	-228.427261	1324.458496	1213.095215	-216.277069	1351.937256	638.166931	-10.076287	1377.776611	518.124817	-60.501945	1409.063599	299.857361	0.513445	1440.793457	68.295456	-118.058434	1395.624634	60.905300	-182.621643	1601.727783	52.303986	-136.708954	1107.508545	599.897156	-431.067688	1057.139038	492.830322	-381.662750	924.255737	355.116241	-422.405029	740.384155	160.141602	-319.498077	706.010925	201.649078	-267.270508	832.552063	42.099678	-279.296448
186	1.85000000	1211.142700	1425.919800	25.964926	1259.042236	1464.045654	-426.127777	1146.070435	1559.497803	-216.738724	1294.552246	1447.263794	-204.889114	1048.214600	1145.760132	68.603874	1283.216431	1171.820190	-558.470520	1033.826324	872.691620	52.768366	1488.869812	1018.062164	-524.105789	1296.319336	1013.582092	-95.349899	1280.546021	981.506592	-332.196838	1070.179443	1028.354126	-208.428177	1051.022583	1350.064575	-227.771988	1340.183105	1215.719604	-215.433411	1366.906250	640.718689	-9.498659	1391.167114	519.851562	-59.963173	1419.335571	300.967682	1.203580	1442.603027	68.554443	-117.808136	1396.731689	61.950058	-181.993698	1603.085205	49.053558	-136.605362	1129.484253	599.747681	-432.088867	1081.431274	492.762115	-382.920990	943.777893	360.675385	-423.158173	756.227356	170.044312	-320.202728	726.367432	213.510651	-266.617035	836.607544	43.212036	-279.111298
187	1.86000000	1227.196411	1427.747070	26.847183	1274.192139	1467.048218	-424.834808	1160.981445	1561.715332	-215.211807	1309.662964	1449.792603	-203.780701	1067.924805	1146.057739	70.865654	1294.234863	1173.070557	-555.978638	1057.851685	872.982697	55.931955	1496.070129	1013.847717	-523.182617	1311.271118	1017.342468	-94.347046	1296.704102	983.323059	-330.342133	1085.721680	1030.140381	-208.392899	1066.233398	1351.937500	-227.145111	1355.655396	1218.380249	-214.804703	1380.399292	642.537781	-8.997093	1403.359985	521.104492	-59.677444	1428.235229	301.640106	1.381069	1444.176147	68.885269	-117.970810	1397.623047	62.779285	-181.709137	1604.144897	46.747269	-136.906967	1152.186157	599.744263	-433.273163	1106.659424	492.763000	-384.404541	964.632263	366.456024	-424.021301	774.020752	180.052490	-320.850128	748.981812	225.315536	-265.936707	841.932068	45.226021	-278.984283
188	1.87000000	1243.228516	1429.752686	27.625401	1289.027588	1470.065186	-423.678345	1175.717651	1563.912354	-213.834869	1324.628296	1452.319580	-202.859253	1087.760010	1146.490234	73.222923	1304.966797	1174.296753	-553.487610	1082.607056	873.491730	59.212633	1502.578857	1009.315613	-522.232895	1326.031128	1020.931152	-93.136108	1312.628174	985.235474	-328.427979	1101.059448	1031.939697	-208.070724	1081.250610	1353.875732	-226.490082	1370.891479	1221.000366	-214.353683	1392.442993	643.601501	-8.640833	1414.436035	521.910889	-59.654552	1435.832764	301.969574	1.047446	1445.556641	69.240341	-118.491318	1398.362549	63.429348	-181.760315	1605.012329	45.148212	-137.503693	1175.344238	599.934143	-434.536041	1132.585205	492.870087	-386.033417	986.775635	372.231415	-425.016113	793.584473	190.075684	-321.468903	773.443726	236.893539	-265.350525	848.981689	48.336239	-279.048340
189	1.88000000	1259.218628	1431.869019	28.309095	1303.502563	1472.981689	-422.701904	1190.294922	1566.076660	-212.602600	1339.444580	1454.810059	-202.117584	1107.682373	1147.008911	75.672112	1315.407227	1175.408447	-551.050964	1107.989807	874.177948	62.581125	1508.454224	1004.508453	-521.272797	1340.648804	1024.212646	-91.740707	1328.291138	987.204834	-326.526093	1116.191162	1033.762207	-207.442139	1096.081543	1355.858643	-225.757172	1385.915405	1223.534668	-214.024765	1403.328247	644.038269	-8.479014	1424.551636	522.346558	-59.871304	1442.204956	302.064636	0.267733	1446.762451	69.579918	-119.275909	1398.995483	63.941711	-182.093872	1605.754272	44.052357	-138.237808	1198.685303	600.384094	-435.795685	1159.000977	493.152740	-387.730774	1010.166748	377.772675	-426.155853	814.707214	200.020523	-322.034149	799.274841	248.057327	-264.866577	858.284790	52.602249	-279.463348
190	1.89000000	1275.151489	1434.043457	28.907766	1317.599365	1475.710815	-421.942749	1204.735107	1568.220581	-211.506424	1354.112671	1457.253052	-201.539413	1127.686646	1147.578247	78.206047	1325.547607	1176.335205	-548.709534	1133.884705	875.009064	66.007401	1513.749817	999.473999	-520.324997	1355.151367	1027.074341	-90.206451	1343.674072	989.216187	-324.714813	1131.112061	1035.637817	-206.533707	1110.738525	1357.884521	-224.910568	1400.753662	1225.970337	-213.759262	1413.442139	644.052185	-8.515828	1433.889160	522.508850	-60.277699	1447.468872	302.016205	-0.841385	1447.795166	69.877975	-120.218300	1399.543701	64.351654	-182.626221	1606.406006	43.299446	-138.992310	1221.989990	601.164612	-436.992035	1185.745850	493.701752	-389.435730	1034.758911	382.888062	-427.437134	837.181702	209.753632	-322.468201	825.988892	258.584747	-264.377197	870.389221	57.907505	-280.386566
191	1.90000000	1291.015137	1436.243042	29.429409	1331.328491	1478.200806	-421.423309	1219.060791	1570.370239	-210.535934	1368.634888	1459.655151	-201.102631	1147.794678	1148.181641	80.812111	1335.382202	1177.038208	-546.486938	1160.178650	875.968964	69.465778	1518.509644	994.267120	-519.414703	1369.546509	1029.447144	-88.591202	1358.766235	991.275208	-323.070221	1145.815918	1037.606934	-205.413071	1125.235962	1359.959351	-223.932755	1415.432373	1228.322754	-213.508179	1423.117188	643.852844	-8.711287	1442.609131	522.492126	-60.805286	1451.801880	301.899902	-2.130437	1448.656128	70.126068	-121.216713	1400.014282	64.688568	-183.262268	1606.981934	42.771221	-139.696609	1245.137695	602.333313	-438.093781	1212.707520	494.612091	-391.103088	1060.474854	387.463043	-428.821899	860.824646	219.081512	-322.668488	853.150818	268.225647	-263.714478	885.778931	63.971783	-281.935577
192	1.91000000	1306.801270	1438.456177	29.879545	1344.721558	1480.436523	-421.144562	1233.292114	1572.554321	-209.679504	1383.014893	1462.030762	-200.781845	1168.042358	1148.823486	83.474167	1344.910400	1177.518188	-544.388428	1186.775024	877.062103	72.940897	1522.764709	988.950500	-518.564728	1383.827881	1031.320801	-86.954338	1373.567017	993.401550	-321.654907	1160.294678	1039.711670	-204.176208	1139.588623	1362.085205	-222.824142	1429.974976	1230.624634	-213.239639	1432.565796	643.613525	-8.996411	1450.821533	522.374146	-61.375465	1455.404785	301.772949	-3.444534	1449.357422	70.331200	-122.183350	1400.411621	64.977928	-183.912766	1607.485962	42.385525	-140.302841	1268.117676	603.923340	-439.096558	1239.810059	495.963684	-392.699127	1087.177612	391.485077	-430.221710	885.494202	227.757446	-322.548798	880.438232	276.729309	-262.732117	904.774475	70.402138	-284.151245
193	1.92000000	1322.504883	1440.690063	30.260645	1357.822510	1482.435547	-421.084015	1247.443726	1574.792114	-208.923157	1397.258667	1464.392700	-200.550903	1188.465088	1149.529419	86.174828	1354.140015	1177.813843	-542.403259	1213.603577	878.316528	76.431465	1526.531555	983.592743	-517.790894	1397.979004	1032.746338	-85.348190	1388.089111	995.620361	-320.507080	1174.530151	1041.985596	-202.929779	1153.807251	1364.255005	-221.598358	1444.399048	1232.912842	-212.939468	1441.873901	643.447693	-9.290966	1458.576782	522.210510	-61.909870	1458.467773	301.666077	-4.651950	1449.924561	70.508934	-123.051376	1400.742798	65.241043	-184.506927	1607.918945	42.087986	-140.780777	1291.006714	605.941284	-440.016113	1266.996094	497.802826	-394.198944	1114.657959	395.036285	-431.501648	911.105896	235.509689	-322.075409	907.689819	283.875275	-261.366974	927.456970	76.758522	-286.971283
